<?xml version="1.0" encoding="UTF-8" standalone="no"?>
<!-- Created with Inkscape (http://www.inkscape.org/) -->

<svg
   width="200.78375mm"
   height="97.733559mm"
   viewBox="0 0 200.78375 97.733559"
   version="1.1"
   id="svg1"
   xml:space="preserve"
   inkscape:version="1.3 (0e150ed, 2023-07-21)"
   sodipodi:docname="drawing.svg"
   inkscape:export-filename="drawing.png"
   inkscape:export-xdpi="96"
   inkscape:export-ydpi="96"
   xmlns:inkscape="http://www.inkscape.org/namespaces/inkscape"
   xmlns:sodipodi="http://sodipodi.sourceforge.net/DTD/sodipodi-0.dtd"
   xmlns="http://www.w3.org/2000/svg"
   xmlns:svg="http://www.w3.org/2000/svg"><sodipodi:namedview
     id="namedview1"
     pagecolor="#ffffff"
     bordercolor="#000000"
     borderopacity="0.25"
     inkscape:showpageshadow="2"
     inkscape:pageopacity="0.0"
     inkscape:pagecheckerboard="0"
     inkscape:deskcolor="#d1d1d1"
     inkscape:document-units="mm"
     inkscape:zoom="0.78239463"
     inkscape:cx="382.79915"
     inkscape:cy="334.23031"
     inkscape:window-width="1920"
     inkscape:window-height="1052"
     inkscape:window-x="1080"
     inkscape:window-y="28"
     inkscape:window-maximized="0"
     inkscape:current-layer="layer1" /><defs
     id="defs1"><rect
       x="200.666"
       y="492.07904"
       width="460.12585"
       height="176.38158"
       id="rect1" /><rect
       x="200.666"
       y="492.07904"
       width="460.12585"
       height="176.38158"
       id="rect1-1" /></defs><g
     inkscape:label="Layer 1"
     inkscape:groupmode="layer"
     id="layer1"
     transform="translate(-3.7453837,-59.95653)"><path
       style="fill:#000000;stroke-width:2.49436"
       d="m 75.862442,103.02272 c -6.153058,-2.63334 -8.693418,-9.719796 -5.894001,-16.441611 3.135364,-7.528506 11.788101,-9.042406 16.409767,-2.871103 3.466861,4.629266 3.714943,10.979635 0.609735,15.607843 -2.532101,3.774071 -7.27409,5.353171 -11.125501,3.704871 z m 6.168108,-5.415338 c 3.708919,-2.651195 4.010723,-7.743568 0.655122,-11.05393 -5.300444,-5.22896 -12.62862,2.867479 -8.357416,9.233593 2.285507,3.406512 4.688741,3.97447 7.702294,1.820337 z m 42.58195,5.419928 c -4.99244,-2.15513 -8.20783,-8.265502 -7.45336,-14.164021 0.3514,-2.74748 1.18595,-4.776948 3.46594,-8.428722 0.5441,-0.871452 0.10136,-2.255199 -2.15089,-6.72141 -1.55984,-3.093187 -2.75187,-6.136625 -2.64894,-6.763165 0.41883,-2.549698 2.14216,-0.80674 5.03658,5.093967 2.52457,5.146687 3.26213,6.158933 4.23149,5.807339 2.02762,-0.735438 6.34836,-0.345302 8.10782,0.732088 5.7025,3.491831 7.8274,11.208585 4.9832,18.09688 -2.2567,5.465444 -8.66818,8.463854 -13.57184,6.347044 z m 6.7081,-5.156002 c 2.48027,-1.379884 3.87471,-4.187026 3.87471,-7.800151 0,-3.855093 -3.21632,-7.467305 -6.6489,-7.467305 h -2.5042 l 1.88133,3.908251 c 1.03472,2.149541 1.70658,4.239746 1.49301,4.644898 -0.84107,1.595519 -2.22145,0.57463 -3.82123,-2.826074 -0.92179,-1.959484 -1.87466,-3.567324 -2.11747,-3.572996 -0.2428,-0.0054 -0.88894,1.004203 -1.43585,2.244103 -1.84766,4.189025 -0.23311,8.996838 3.70587,11.035294 2.40397,1.244087 3.07401,1.224128 5.57273,-0.166101 z m -38.683483,-0.27427 c -2.263839,-1.630117 -2.290838,-3.349388 -0.04607,-2.927653 0.804142,0.150977 4.983796,0.311839 9.288103,0.357294 l 7.82603,0.08264 1.43168,-4.122719 c 2.66613,-7.677349 3.42533,-6.887705 -6.83855,-7.112847 -8.563523,-0.187978 -9.026146,-0.271245 -9.026146,-1.627173 0,-1.366488 0.461955,-1.43779 10.527676,-1.624796 8.64804,-0.1607 10.58702,-0.01351 10.86012,0.820163 0.18291,0.558668 -0.88291,4.666294 -2.36836,9.128049 l -2.7008,8.112287 -8.46407,0.186628 c -7.617426,0.167992 -8.666692,0.04078 -10.489701,-1.271932 z M 77.07825,76.137455 c -4.072566,-0.801176 -4.662717,-1.144588 -4.662717,-2.713423 0,-2.654841 1.229282,-2.969164 7.344472,-1.877972 3.168027,0.565285 7.968015,1.033583 10.666626,1.040632 2.989541,0.0081 5.192323,0.347841 5.637991,0.870317 0.568868,0.666972 0.731415,0.615251 0.731415,-0.232812 0,-4.885057 12.800183,-8.752169 16.952033,-5.121461 2.16216,1.890748 2.2685,3.003789 0.56959,5.961854 l -1.41579,2.465107 -8.05292,0.199322 c -6.054963,0.149896 -8.052913,-0.01891 -8.052913,-0.678882 0,-0.683069 -0.162639,-0.687687 -0.731415,-0.02161 -0.840563,0.985481 -14.14102,1.061051 -18.986372,0.108033 z m 44.8434,-5.364969 c -1.80506,-1.4823 -1.71079,-3.457557 0.25134,-5.267091 2.64606,-2.440232 3.27012,-1.972826 3.27012,2.449227 0,4.340352 -0.8445,5.016129 -3.52146,2.817864 z m -7.37282,-7.192841 c -0.65993,-1.698097 -0.95503,-1.831383 -3.14541,-1.420748 -1.3957,0.261711 -2.41715,0.165561 -2.41715,-0.227681 0,-0.918743 0.5199,-1.208732 3.17266,-1.769642 2.06944,-0.437589 2.33717,-0.298928 3.19994,1.657153 0.51786,1.17408 0.94155,2.47221 0.94155,2.884763 0,1.408945 -1.02216,0.753128 -1.75159,-1.123818 z"
       id="path1" /><text
       xml:space="preserve"
       transform="matrix(0.60951257,0,0,0.71459633,-197.30433,-245.37145)"
       id="text1"
       style="font-weight:bold;font-size:42.6667px;font-family:Sans;-inkscape-font-specification:'Sans, Bold';text-align:end;white-space:pre;shape-inside:url(#rect1);display:inline;fill:#3c5475;stroke-width:2.26772;stroke-linecap:round;stroke-linejoin:round;stroke-miterlimit:3.1"><tspan
         x="325.89493"
         y="531.00425"
         id="tspan5"><tspan
           style="fill:#000000"
           id="tspan4">MOTOROUTES</tspan></tspan></text><text
       xml:space="preserve"
       transform="matrix(0.13229166,0,0,0.13229166,33.159345,81.946467)"
       id="text1-7"
       style="font-weight:bold;font-size:42.6667px;font-family:Sans;-inkscape-font-specification:'Sans, Bold';text-align:end;white-space:pre;shape-inside:url(#rect1-1);display:inline;fill:#3c5475;stroke-width:2.26772;stroke-linecap:round;stroke-linejoin:round;stroke-miterlimit:3.1" /><text
       xml:space="preserve"
       style="font-style:normal;font-variant:normal;font-weight:normal;font-stretch:normal;font-size:19.359px;font-family:Sans;-inkscape-font-specification:'Sans, Normal';font-variant-ligatures:normal;font-variant-caps:normal;font-variant-numeric:normal;font-variant-east-asian:normal;text-align:end;text-anchor:end;fill:#000000;fill-opacity:1;stroke-width:1.49662;stroke-linecap:round;stroke-linejoin:round;stroke-miterlimit:3.1"
       x="210.62062"
       y="145.37964"
       id="text2"
       transform="scale(0.92355113,1.0827771)"><tspan
         sodipodi:role="line"
         id="tspan2"
         style="font-style:normal;font-variant:normal;font-weight:normal;font-stretch:normal;font-size:19.359px;font-family:Sans;-inkscape-font-specification:'Sans, Normal';font-variant-ligatures:normal;font-variant-caps:normal;font-variant-numeric:normal;font-variant-east-asian:normal;stroke-width:1.49662"
         x="210.62062"
         y="145.37964">TRACK SHARE RIDE</tspan></text></g></svg>
